<svg width="202" height="44" viewBox="0 0 202 44" fill="none" xmlns="http://www.w3.org/2000/svg">
<path d="M2 42V2H42M2 42H42V2M2 42L11.0909 24.7273L18.3636 29.2727L24.7273 14.7273L32.9091 20.1818L42 2" stroke="#044B7F" stroke-width="3" stroke-linecap="square"/>
<path d="M64.728 26.204C64.728 27.3427 64.448 28.3787 63.888 29.312C63.328 30.2267 62.488 30.9547 61.368 31.496C60.248 32.0187 58.8387 32.28 57.14 32.28C55.964 32.28 54.9093 32.1773 53.976 31.972C53.0427 31.7667 52.1373 31.4587 51.26 31.048V26.708C52.268 27.1747 53.2947 27.5667 54.34 27.884C55.404 28.2013 56.4213 28.36 57.392 28.36C58.3067 28.36 58.9693 28.192 59.38 27.856C59.7907 27.5013 59.996 27.0627 59.996 26.54C59.996 25.9053 59.6693 25.392 59.016 25C58.3627 24.5893 57.4387 24.104 56.244 23.544C55.46 23.1893 54.6947 22.7693 53.948 22.284C53.22 21.78 52.6227 21.1547 52.156 20.408C51.6893 19.6427 51.456 18.672 51.456 17.496C51.456 15.6293 52.1 14.2013 53.388 13.212C54.6947 12.2227 56.4213 11.728 58.568 11.728C59.7253 11.728 60.7987 11.868 61.788 12.148C62.7773 12.4093 63.748 12.736 64.7 13.128L63.188 16.852C62.292 16.46 61.452 16.1613 60.668 15.956C59.9027 15.732 59.156 15.62 58.428 15.62C57.6627 15.62 57.0933 15.7787 56.72 16.096C56.3467 16.4133 56.16 16.8147 56.16 17.3C56.16 17.692 56.2907 18.0373 56.552 18.336C56.8133 18.616 57.224 18.9053 57.784 19.204C58.344 19.5027 59.0813 19.8667 59.996 20.296C60.9853 20.744 61.8347 21.2293 62.544 21.752C63.2533 22.2747 63.7947 22.8907 64.168 23.6C64.5413 24.2907 64.728 25.1587 64.728 26.204ZM76.9493 16.348C78.5733 16.348 79.88 16.796 80.8693 17.692C81.8773 18.5693 82.3813 19.9973 82.3813 21.976V32H77.6773V23.292C77.6773 22.228 77.5 21.4253 77.1453 20.884C76.7907 20.3427 76.2307 20.072 75.4653 20.072C74.3267 20.072 73.552 20.5013 73.1413 21.36C72.7307 22.2 72.5253 23.4133 72.5253 25V32H67.7933V16.628H71.3773L72.0213 18.616H72.2453C72.7307 17.8693 73.384 17.3093 74.2053 16.936C75.0267 16.544 75.9413 16.348 76.9493 16.348ZM93.2478 16.32C95.2451 16.32 96.7944 16.7867 97.8958 17.72C98.9971 18.6533 99.5478 20.016 99.5478 21.808V32H96.2718L95.3478 29.928H95.2358C94.5824 30.768 93.8918 31.3747 93.1638 31.748C92.4358 32.1027 91.4371 32.28 90.1678 32.28C88.8051 32.28 87.6758 31.8787 86.7798 31.076C85.8838 30.2733 85.4358 29.032 85.4358 27.352C85.4358 25.728 86.0051 24.524 87.1438 23.74C88.3011 22.9373 89.9904 22.4893 92.2118 22.396L94.8438 22.312V21.864C94.8438 21.1173 94.6478 20.576 94.2558 20.24C93.8824 19.904 93.3598 19.736 92.6878 19.736C92.0158 19.736 91.3158 19.848 90.5878 20.072C89.8598 20.2773 89.1224 20.5387 88.3758 20.856L86.9478 17.72C87.7878 17.272 88.7398 16.9267 89.8038 16.684C90.8678 16.4413 92.0158 16.32 93.2478 16.32ZM94.8438 25L93.4158 25.056C92.2398 25.0933 91.4184 25.308 90.9518 25.7C90.4851 26.0733 90.2518 26.5867 90.2518 27.24C90.2518 27.8187 90.4198 28.2387 90.7558 28.5C91.0918 28.7613 91.5211 28.892 92.0438 28.892C92.8278 28.892 93.4904 28.6587 94.0318 28.192C94.5731 27.7067 94.8438 27.0533 94.8438 26.232V25ZM112.492 16.348C114.209 16.348 115.581 17.0293 116.608 18.392C117.634 19.736 118.148 21.696 118.148 24.272C118.148 26.0267 117.896 27.5013 117.392 28.696C116.888 29.872 116.197 30.768 115.32 31.384C114.461 31.9813 113.472 32.28 112.352 32.28C111.25 32.28 110.382 32.084 109.748 31.692C109.132 31.3 108.637 30.8707 108.264 30.404H108.068C108.124 30.7587 108.17 31.132 108.208 31.524C108.245 31.916 108.264 32.336 108.264 32.784V38.72H103.532V16.628H107.368L108.04 18.588H108.264C108.656 17.9907 109.188 17.468 109.86 17.02C110.532 16.572 111.409 16.348 112.492 16.348ZM110.84 20.072C109.888 20.072 109.225 20.3893 108.852 21.024C108.478 21.64 108.282 22.5733 108.264 23.824V24.244C108.264 25.6067 108.45 26.652 108.824 27.38C109.197 28.108 109.888 28.472 110.896 28.472C112.52 28.472 113.332 27.0533 113.332 24.216C113.332 22.7787 113.126 21.7333 112.716 21.08C112.305 20.408 111.68 20.072 110.84 20.072ZM132.447 27.352C132.447 28.864 131.915 30.068 130.851 30.964C129.806 31.8413 128.163 32.28 125.923 32.28C124.84 32.28 123.888 32.2147 123.067 32.084C122.264 31.9533 121.452 31.72 120.631 31.384V27.576C121.527 27.9867 122.46 28.304 123.431 28.528C124.402 28.7333 125.223 28.836 125.895 28.836C126.604 28.836 127.118 28.7427 127.435 28.556C127.752 28.3693 127.911 28.108 127.911 27.772C127.911 27.5293 127.827 27.3147 127.659 27.128C127.51 26.9413 127.192 26.736 126.707 26.512C126.24 26.2693 125.54 25.952 124.607 25.56C123.692 25.168 122.936 24.7667 122.339 24.356C121.76 23.9453 121.322 23.46 121.023 22.9C120.743 22.3213 120.603 21.6027 120.603 20.744C120.603 19.288 121.163 18.196 122.283 17.468C123.422 16.7213 124.924 16.348 126.791 16.348C127.78 16.348 128.714 16.4507 129.591 16.656C130.468 16.8613 131.374 17.1787 132.307 17.608L130.963 20.8C130.198 20.464 129.451 20.1933 128.723 19.988C128.014 19.7827 127.37 19.68 126.791 19.68C125.708 19.68 125.167 19.96 125.167 20.52C125.167 20.7253 125.242 20.9213 125.391 21.108C125.559 21.276 125.867 21.4627 126.315 21.668C126.782 21.8733 127.454 22.1627 128.331 22.536C129.208 22.8907 129.955 23.2733 130.571 23.684C131.187 24.076 131.654 24.5613 131.971 25.14C132.288 25.7187 132.447 26.456 132.447 27.352ZM142.523 28.528C142.99 28.528 143.428 28.4813 143.839 28.388C144.268 28.2947 144.698 28.1733 145.127 28.024V31.496C144.623 31.72 144.044 31.9067 143.391 32.056C142.738 32.2053 141.963 32.28 141.067 32.28C140.115 32.28 139.266 32.1307 138.519 31.832C137.791 31.5147 137.212 30.9827 136.783 30.236C136.372 29.4893 136.167 28.4347 136.167 27.072V20.156H134.207V18.196L136.559 16.684L137.847 13.436H140.871V16.628H144.959V20.156H140.871V26.904C140.871 27.4453 141.02 27.856 141.319 28.136C141.618 28.3973 142.019 28.528 142.523 28.528ZM162.355 24.272C162.355 26.848 161.674 28.8267 160.311 30.208C158.967 31.5893 157.119 32.28 154.767 32.28C153.311 32.28 152.014 31.972 150.875 31.356C149.755 30.7213 148.869 29.816 148.215 28.64C147.581 27.4453 147.263 25.9893 147.263 24.272C147.263 21.7333 147.935 19.7827 149.279 18.42C150.642 17.0387 152.499 16.348 154.851 16.348C156.307 16.348 157.595 16.656 158.715 17.272C159.854 17.888 160.741 18.784 161.375 19.96C162.029 21.136 162.355 22.5733 162.355 24.272ZM152.051 24.272C152.051 25.7093 152.266 26.8013 152.695 27.548C153.125 28.276 153.834 28.64 154.823 28.64C155.794 28.64 156.494 28.276 156.923 27.548C157.353 26.8013 157.567 25.7093 157.567 24.272C157.567 22.8533 157.353 21.7893 156.923 21.08C156.494 20.352 155.785 19.988 154.795 19.988C153.825 19.988 153.125 20.352 152.695 21.08C152.266 21.7893 152.051 22.8533 152.051 24.272ZM172.21 32.28C169.895 32.28 168.085 31.6547 166.778 30.404C165.471 29.1347 164.818 27.128 164.818 24.384C164.818 22.5173 165.145 20.996 165.798 19.82C166.47 18.6253 167.394 17.748 168.57 17.188C169.746 16.628 171.09 16.348 172.602 16.348C173.61 16.348 174.515 16.4507 175.318 16.656C176.139 16.8613 176.867 17.1227 177.502 17.44L176.13 20.996C175.477 20.716 174.87 20.5013 174.31 20.352C173.75 20.184 173.181 20.1 172.602 20.1C171.65 20.1 170.913 20.4547 170.39 21.164C169.867 21.8733 169.606 22.9373 169.606 24.356C169.606 25.7933 169.877 26.848 170.418 27.52C170.959 28.1733 171.697 28.5 172.63 28.5C173.451 28.5 174.217 28.388 174.926 28.164C175.654 27.9213 176.345 27.5853 176.998 27.156V31.02C176.363 31.4307 175.673 31.748 174.926 31.972C174.179 32.1773 173.274 32.28 172.21 32.28ZM185.072 10.72V19.708C185.072 20.3053 185.044 20.94 184.988 21.612C184.951 22.2653 184.895 22.9 184.82 23.516H184.904C185.147 23.1427 185.418 22.7413 185.716 22.312C186.034 21.8827 186.342 21.4907 186.64 21.136L190.56 16.628H195.824L190.084 23.236L196.188 32H190.784L186.836 26.12L185.072 27.492V32H180.34V10.72H185.072Z" fill="#044B7F"/>
</svg>
